# xmcd
#
# Track frame offsets:
# 150
# 12347
# 26787
# 35717
# 49625
# 63905
# 79720
# 90840
# 104015
# 112065
# 125282
# 135942
# 149340
# 165772
# 179272
# 190617
# 206500
# 217612
# 228227
# 240592
# 256685
# 269072
#
# Disc length: 3747 seconds
#
# Revision: 1
# Processed by: cddbd v1.5.1PL0 Copyright (c) Steve Scherf et al.
# Submitted via: Easy CD Ripper v2.13
#
DISCID=1e0ea116
DTITLE=Diamonds Are Forever - CD1
DYEAR=2003
DGENRE=Blues
TTITLE0=Everybody Loves Somebody - Martin, Dean
TTITLE1=Dream A Little Dream Of Me - Mama's and The Papa's, The
TTITLE2=It´s Not Ununsual - Jones, Tom
TTITLE3=Downtown - Clark, Petula
TTITLE4=Candy Man - Davis, Sammy Jr. and Mike Curb Co
TTITLE5=Say A Little Prayer (Album Version) - Franklin, ArethaI
TTITLE6=Strangers In The Night - Monro, Matt
TTITLE7=Walk On By - Warwick, Dionne
TTITLE8=Gonna Get Along Without Ya Now (Album Version) - Lopez, Trini
TTITLE9=Buona Sera - Prima, Louis
TTITLE10=Sugar Town - Sinatra, Nancy
TTITLE11=Wand'rin' Star (Ost Paint Your Wagon) - Marvin, Lee
TTITLE12=Feelings - Albert, Morris
TTITLE13=Raindrops Keep Fallin On My Head - Thomas, B. J.
TTITLE14=Fly Me To The Moon - London, Julie
TTITLE15=The Look Of Love - Springfield, Dusty
TTITLE16=Groovin' (Album Version) - Rascals, The
TTITLE17=Teach Me Tiger - Stevens, April
TTITLE18=Soul Bossa Nova - Soul Bossa Nova
TTITLE19=Light My Fire - Feliciano, José
TTITLE20=Sunny - Hebb, Bobby
TTITLE21=Diamonds Are Forever (From Diamonds Are Forever) - Bassey, Shirley
EXTD=
EXTT0=
EXTT1=
EXTT2=
EXTT3=
EXTT4=
EXTT5=
EXTT6=
EXTT7=
EXTT8=
EXTT9=
EXTT10=
EXTT11=
EXTT12=
EXTT13=
EXTT14=
EXTT15=
EXTT16=
EXTT17=
EXTT18=
EXTT19=
EXTT20=
EXTT21=
PLAYORDER=
